<svg width="24" height="24" viewBox="0 0 24 24" fill="none" xmlns="http://www.w3.org/2000/svg">
<rect x="0.5" y="0.5" width="23" height="23" rx="11.5" fill="#FF3140"/>
<rect x="0.5" y="0.5" width="23" height="23" rx="11.5" stroke="url(#paint0_linear_782_1490)"/>
<path d="M12.6815 18C12.4362 18 12.2335 17.9253 12.0735 17.776C11.9135 17.616 11.8335 17.4187 11.8335 17.184V8.608L12.0415 8.896L10.5535 9.936C10.4255 10.0427 10.2708 10.096 10.0895 10.096C9.87617 10.096 9.68417 10.016 9.5135 9.856C9.3535 9.68533 9.2735 9.488 9.2735 9.264C9.2735 8.98667 9.41217 8.75733 9.6895 8.576L12.1215 6.96C12.2175 6.896 12.3188 6.85333 12.4255 6.832C12.5428 6.81067 12.6495 6.8 12.7455 6.8C12.9908 6.8 13.1882 6.88 13.3375 7.04C13.4868 7.18933 13.5615 7.38133 13.5615 7.616V17.184C13.5615 17.4187 13.4762 17.616 13.3055 17.776C13.1455 17.9253 12.9375 18 12.6815 18Z" fill="white"/>
<defs>
<linearGradient id="paint0_linear_782_1490" x1="0" y1="12" x2="24" y2="12" gradientUnits="userSpaceOnUse">
<stop stop-color="#FF3140"/>
<stop offset="1" stop-color="#092938"/>
</linearGradient>
</defs>
</svg>
